<?xml version="1.0" encoding="UTF-8" standalone="no"?>
<!-- Created with Inkscape (http://www.inkscape.org/) -->

<svg
   width="1024"
   height="128"
   viewBox="0 0 270.93333 33.866666"
   version="1.1"
   id="svg1"
   xml:space="preserve"
   inkscape:version="1.3.2 (091e20e, 2023-11-25)"
   sodipodi:docname="websiteHeader.svg"
   xmlns:inkscape="http://www.inkscape.org/namespaces/inkscape"
   xmlns:sodipodi="http://sodipodi.sourceforge.net/DTD/sodipodi-0.dtd"
   xmlns="http://www.w3.org/2000/svg"
   xmlns:svg="http://www.w3.org/2000/svg"><sodipodi:namedview
     id="namedview1"
     pagecolor="#ffffff"
     bordercolor="#000000"
     borderopacity="0.25"
     inkscape:showpageshadow="2"
     inkscape:pageopacity="0.0"
     inkscape:pagecheckerboard="0"
     inkscape:deskcolor="#d1d1d1"
     inkscape:document-units="mm"
     inkscape:zoom="1.5583903"
     inkscape:cx="759.43747"
     inkscape:cy="57.110211"
     inkscape:window-width="1440"
     inkscape:window-height="795"
     inkscape:window-x="0"
     inkscape:window-y="25"
     inkscape:window-maximized="1"
     inkscape:current-layer="layer1" /><defs
     id="defs1"><rect
       x="396.09059"
       y="96.256653"
       width="272.17398"
       height="52.00072"
       id="rect6" /><rect
       x="292.91848"
       y="13.624115"
       width="677.11853"
       height="79.019869"
       id="rect5" /></defs><g
     inkscape:label="Layer 1"
     inkscape:groupmode="layer"
     id="layer1"><path
       style="fill:#dbefed;fill-opacity:1;stroke-width:0"
       d="M -4.9522416,-5.9948188 275.76166,-7.819329 276.54361,31.798604 -7.5586846,33.362471 Z"
       id="path2" /><path
       style="fill:#161925;stroke-width:0;fill-opacity:1"
       d="m -1.3032215,26.325074 c 0,0 71.4165365,-4.691597 87.3158415,-4.691597 15.8993,0 51.86821,4.691597 93.31066,4.430953 41.44244,-0.260644 91.74679,-7.298041 91.74679,-7.298041 l 0.52128,17.984458 H -3.9096645 Z"
       id="path1" /><path
       style="fill:#717c89;fill-opacity:1;stroke-width:0"
       d="m 35.487831,19.990245 0.727185,0.07792 0.623303,-0.02596 1.869906,-0.934953 0.441505,0.05194 h 1.350485 0.779128 l 0.25971,0.59733 1.973788,0.155825 0.597331,-0.05194 0.467477,-0.337622 1.064805,-0.07791 0.519418,-0.155826 0.623303,-0.363593 1.791993,-0.207766 0.28568,-0.129856 v -0.259709 h -0.337622 l -0.07792,-0.103882 0.02596,-0.103883 0.623303,-0.207767 v -0.129854 l 1.116747,-0.493448 1.558256,-0.31165 1.558253,-0.103882 0.908983,-0.129856 1.064804,-0.181796 0.675246,-0.207767 0.441505,-0.233739 -0.54539,-0.207767 -0.831068,-0.207766 -0.85704,-0.129855 -1.090777,-0.155825 -0.571361,-0.207767 -0.675242,-0.28568 -0.623303,-0.07792 -0.831068,0.02596 -0.88301,0.155825 -0.675246,0.233738 -0.753155,0.337622 -0.285681,0.02597 -2.31141,0.181796 -0.545387,0.103882 -6.181077,-0.727186 h -0.259707 l -0.649274,0.181797 -0.441505,-0.415535 0.415532,-0.05194 0.207768,-0.103883 -0.207768,-0.103882 -0.701212,0.07792 -0.85704,-0.934952 0.57136,-0.02596 0.02595,-0.103883 -1.791993,0.155825 0.389565,3.038596 -1.272575,-0.155826 -0.986893,0.285681 1.090778,0.701214 h 0.415532 l 0.649272,0.07792 h 0.493448 l 0.127179,0.0012 0.03064,0.224719 0.0715,0.173646 0.09193,0.04086 0.08171,-0.02043 h 0.143003 l 0.06129,0.326864 -0.704798,0.224718 -0.357508,0.02043 -0.04086,0.06129 -0.01021,0.122574 0.132791,0.02043 0.214504,-0.03064 0.194074,0.06129 -0.449438,0.09193 z"
       id="path3" /><path
       style="fill:#717c89;fill-opacity:1;stroke-width:0"
       d="m 10.366422,14.175104 0.727185,0.07792 0.623303,-0.02596 1.869906,-0.934953 0.441505,0.05194 h 1.350485 0.779128 l 0.25971,0.59733 1.973788,0.155825 0.597331,-0.05194 0.467477,-0.337622 1.064805,-0.07791 0.519418,-0.155826 0.623303,-0.363593 1.791993,-0.207766 0.28568,-0.129856 v -0.259709 h -0.337622 l -0.07792,-0.103882 0.02596,-0.103883 0.623303,-0.207767 v -0.129854 l 1.116747,-0.493448 1.558256,-0.31165 1.558253,-0.103882 0.908983,-0.129856 1.064804,-0.181796 0.675246,-0.207767 0.441505,-0.233739 -0.54539,-0.207767 L 29.922496,9.889927 29.065456,9.760072 27.974679,9.604247 27.403318,9.39648 26.728076,9.1108 26.104773,9.03288 l -0.831068,0.02596 -0.88301,0.155825 -0.675246,0.233738 -0.753155,0.337622 -0.285681,0.02597 -2.31141,0.181796 -0.545387,0.103882 -6.181077,-0.727186 h -0.259707 l -0.649274,0.181797 -0.441505,-0.415535 0.415532,-0.05194 0.207768,-0.103883 -0.207768,-0.103882 -0.701212,0.07792 -0.85704,-0.934952 0.57136,-0.02596 0.02595,-0.103883 -1.791993,0.155825 0.389565,3.038596 -1.272575,-0.155826 -0.986893,0.285681 1.090778,0.701214 h 0.415532 l 0.649272,0.07792 h 0.493448 l 0.127179,0.0012 0.03064,0.224719 0.0715,0.173646 0.09193,0.04086 0.08171,-0.02043 h 0.143003 l 0.06129,0.326864 -0.704798,0.224718 -0.357508,0.02043 -0.04086,0.06129 -0.01021,0.122574 0.132791,0.02043 0.214504,-0.03064 0.194074,0.06129 -0.449438,0.09193 z"
       id="path4" /><path
       style="fill:#646464;fill-opacity:1;stroke-width:0"
       d="m 256.97862,22.165813 0.41938,15.464385 -0.31451,14.625634 -0.52423,6.290598 -0.94358,-11.375495 -0.26224,-11.323073 V 22.165813 Z"
       id="path8" /><path
       style="fill:#717c89;fill-opacity:1;stroke-width:0"
       d="m -1.9419943,30.683509 c 0,0 39.6502833,1.223505 89.6862823,-0.951973 50.036002,-2.175479 57.007972,-4.482069 91.815632,-5.207228 34.80765,-0.72516 93.37963,9.251843 93.37963,9.251843 l 0.44554,13.35921 -281.3618435,-2.175478 z"
       id="path5"
       sodipodi:nodetypes="csscccc" /><text
       xml:space="preserve"
       transform="matrix(0.41100051,0,0,0.41100051,-52.821061,-9.9550373)"
       id="text5"
       style="font-style:normal;font-variant:normal;font-weight:normal;font-stretch:normal;font-size:64px;font-family:'American Typewriter';-inkscape-font-specification:'American Typewriter';white-space:pre;shape-inside:url(#rect5);display:inline;fill:#1a3d3d;fill-opacity:1;stroke-width:0"><tspan
         x="292.91797"
         y="72.398823"
         id="tspan1">FELIX ROE</tspan></text><text
       xml:space="preserve"
       transform="matrix(0.26458333,0,0,0.26458333,9.9529748,-0.58546911)"
       id="text6"
       style="font-style:normal;font-variant:normal;font-weight:normal;font-stretch:normal;font-size:26.6667px;font-family:'American Typewriter';-inkscape-font-specification:'American Typewriter';white-space:pre;shape-inside:url(#rect6);display:inline;fill:#c8d7d7;fill-opacity:1;stroke-width:0"><tspan
         x="396.08984"
         y="120.74498"
         id="tspan2">Digi portfolio</tspan></text><path
       style="fill:#717c89;fill-opacity:1;stroke-width:0"
       d="m 256.2086,0.90976244 0.082,0.0287105 0.10246,0.16818706 0.17235,0.2748421 0.20112,0.4881549 0.13977,0.032817 0.86145,0.8245299 0.002,0.6481382 h -0.69303 l 0.082,4.9020555 0.68795,1.192596 0.0114,1.5678584 -0.69451,-0.02103 0.0316,0.420902 0.35776,0.02103 0.0114,0.06314 -0.4104,0.03157 0.0114,0.0947 h 0.64188 l -0.12614,0.12627 -0.52614,0.01053 0.10531,8.24968 0.11553,0.14733 0.0526,4.251111 -0.0633,0.04208 -0.0343,0.718067 -2.09271,0.0064 -0.13466,-0.210104 -0.0197,-0.220167 0.12897,-12.911515 -0.33248,-0.0057 -0.0114,-0.108914 0.34392,-0.01148 -0.006,-0.06879 -0.5962,-0.0057 0.14337,-0.126111 h 0.46434 l -0.006,-0.424198 -0.5962,0.01148 0.0114,-1.5248195 0.65923,-1.1980737 0.017,-4.9184047 -0.6707,0.011477 -0.006,-0.6248317 0.74522,-0.7566781 0.22945,-0.1777041 0.2464,-0.561776 0.18353,-0.3267467 0.0746,-0.0974516 z"
       id="path6"
       sodipodi:nodetypes="cccccccccccccccccccccccccccccccccccccccccccccccccc" /><path
       style="display:none;fill:#717c89;fill-opacity:1;stroke-width:0"
       d="m 247.31267,8.8354668 0.0307,2.2292322 h 0.35953 l 0.009,-0.133562 2.66069,0.113004 0.0308,0.225997 h 0.50334 l 0.0208,0.195177 -0.21579,0.02057 -0.19521,0.801289 0.0513,-0.02057 v 0.164355 l -2.59904,-0.06163 -0.64724,0.544466 0.11273,19.314229 -2.81913,0.08373 -0.0835,-19.510798 -0.47859,-0.404938 -2.64897,0.145448 -0.008,-0.153103 0.14563,-0.0076 -0.2603,-0.865114 -0.26031,-0.01524 -0.008,-0.183743 0.59718,0.01524 -0.0156,-0.206705 2.62595,-0.130138 0.008,0.122499 0.29856,-0.0076 -0.0156,-2.2431752 z"
       id="path7" /></g></svg>
